<?xml version="1.0" encoding="utf-8"?>
<!-- Uploaded to: SVG Repo, www.svgrepo.com, Generator: SVG Repo Mixer Tools -->
<svg width="800px" height="800px" viewBox="0 0 24 24" xmlns="http://www.w3.org/2000/svg" xmlns:xlink="http://www.w3.org/1999/xlink">
  <defs>
    <path id="check-a" d="M4.29289322,0.292893219 C4.68341751,-0.0976310729 5.31658249,-0.0976310729 5.70710678,0.292893219 C6.09763107,0.683417511 6.09763107,1.31658249 5.70710678,1.70710678 L1.90917969,5.46118164 C1.5186554,5.85170593 0.885490417,5.85170593 0.494966125,5.46118164 C0.104441833,5.07065735 0.104441833,4.43749237 0.494966125,4.04696808 L4.29289322,0.292893219 Z"/>
    <path id="check-c" d="M10.7071068,13.2928932 C11.0976311,13.6834175 11.0976311,14.3165825 10.7071068,14.7071068 C10.3165825,15.0976311 9.68341751,15.0976311 9.29289322,14.7071068 L0.292893219,5.70710678 C-0.0976310729,5.31658249 -0.0976310729,4.68341751 0.292893219,4.29289322 L4.29289322,0.292893219 C4.68341751,-0.0976310729 5.31658249,-0.0976310729 5.70710678,0.292893219 C6.09763107,0.683417511 6.09763107,1.31658249 5.70710678,1.70710678 L2.41421356,5 L10.7071068,13.2928932 Z"/>
  </defs>
  <g fill="none" fill-rule="evenodd" transform="rotate(-90 11 7)">
    <g transform="translate(1 1)">
      <mask id="check-b" fill="#ffffff">
        <use xlink:href="#check-a"/>
      </mask>
      <use fill="#D8D8D8" fill-rule="nonzero" xlink:href="#check-a"/>
      <g fill="#FFA0A0" mask="url(#check-b)">
        <rect width="24" height="24" transform="translate(-7 -5)"/>
      </g>
    </g>
    <mask id="check-d" fill="#ffffff">
      <use xlink:href="#check-c"/>
    </mask>
    <use fill="#000000" fill-rule="nonzero" xlink:href="#check-c"/>
    <g fill="#7600FF" mask="url(#check-d)">
      <rect width="24" height="24" transform="translate(-6 -4)"/>
    </g>
  </g>
</svg>